<mxfile host="app.diagrams.net" modified="2023-05-25T06:41:25.079Z" agent="Mozilla/5.0 (Windows NT 10.0; Win64; x64) AppleWebKit/537.36 (KHTML, like Gecko) Chrome/113.0.0.0 Safari/537.36" version="21.3.2" etag="Cko5RNT4LIVSHm_ujxCr" type="github">
  <diagram name="第 1 页" id="0fqK2yIArP4X0zgE1vKK">
    <mxGraphModel>
      <root>
        <mxCell id="0" />
        <mxCell id="1" parent="0" />
      </root>
    </mxGraphModel>
  </diagram>
</mxfile>
